<?xml version="1.0" encoding="utf-8"?>
<!-- Generator: Adobe Illustrator 16.0.0, SVG Export Plug-In . SVG Version: 6.00 Build 0)  -->
<!DOCTYPE svg PUBLIC "-//W3C//DTD SVG 1.1//EN" "http://www.w3.org/Graphics/SVG/1.1/DTD/svg11.dtd">
<svg version="1.1" id="Layer_1" xmlns="http://www.w3.org/2000/svg" xmlns:xlink="http://www.w3.org/1999/xlink" x="0px" y="0px"
	 width="182.625px" height="90.25px" viewBox="0 6.75 182.625 90.25" enable-background="new 0 6.75 182.625 90.25"
	 xml:space="preserve">
<g>
	<path fill="#B56348" d="M10.706,37.339L9.068,50.915l6.435,0.004C13.896,42.736,12.234,38.831,10.706,37.339z"/>
	<path fill="#E5C898" d="M4.515,42.808c-1.769,6.103-4.004,8.093-4.004,8.093l7.448,0.005l1.9-14.159
		C6.819,35.354,4.515,42.808,4.515,42.808z"/>
	<path fill="#8E3436" d="M10.915,35.874c0,0,4.035,3.787,5.662,15.087c0,0,2.286,15.962,7.354,14.329l-3.353-23.208
		C20.578,42.082,16.316,5.016,10.915,35.874z"/>
	<path fill="#7B5336" d="M28.903,50.93h-5.868c0,0,1.556,12.42,1.834,13.765c0,0,1.582-4.287,2.72-8.091
		C27.613,56.523,28.275,54.185,28.903,50.93z"/>
	<path fill="#3A96A1" d="M29.969,50.934c-2.955,13.241-4.86,15.282-4.86,15.282c6.324,39.879,8.716-7.141,8.716-7.141
		c0.28-6.268,2.61-15.852,2.61-15.852C31.15,42.99,29.969,50.934,29.969,50.934z"/>
	<path fill="#BAA544" d="M37.225,43.604c0-0.034-1.503,7.327-1.503,7.327l6.442-0.002c-0.28-0.355-1.787-3.226-1.787-3.226
		C39.259,45.73,37.225,43.604,37.225,43.604z"/>
	<path fill="#F7AD1E" d="M45.113,41.279c-0.56-1.078-4.707-10.295-7.657,1.241c0,0,2.334,1.716,4.848,6.653
		c0,0,2.528,5.806,6.719,4.735C49.024,53.908,45.673,42.356,45.113,41.279z"/>
</g>
<g>
	<path fill="#833031" d="M64.346,28.523h1.96l8.456,18.687H72.51l-2.173-4.902H60.236l-2.201,4.902h-2.146L64.346,28.523z
		 M69.512,40.426l-4.214-9.462l-4.241,9.462H69.512z"/>
	<path fill="#833031" d="M78.417,28.656h13.337v1.935H80.512v6.628h10.05v1.908h-10.05v8.083h-2.094L78.417,28.656L78.417,28.656z"
		/>
	<path fill="#833031" d="M95.808,28.656h7.978c2.28,0,4.108,0.69,5.274,1.857c0.902,0.901,1.433,2.199,1.433,3.657v0.053
		c0,3.074-2.121,4.877-5.036,5.407l5.7,7.581h-2.572l-5.38-7.209h-5.303v7.209H95.81V28.656H95.808z M103.6,38.12
		c2.784,0,4.772-1.431,4.772-3.817v-0.052c0-2.28-1.748-3.659-4.746-3.659h-5.725v7.528H103.6z"/>
	<path fill="#833031" d="M115.155,28.656h2.095V47.21h-2.095V28.656z"/>
	<path fill="#833031" d="M121.86,37.987v-0.052c0-5.248,3.923-9.596,9.383-9.596c3.366,0,5.382,1.194,7.235,2.942l-1.431,1.538
		c-1.564-1.483-3.312-2.545-5.83-2.545c-4.109,0-7.185,3.341-7.185,7.607v0.054c0,4.293,3.103,7.659,7.185,7.659
		c2.542,0,4.213-0.98,5.989-2.676l1.38,1.352c-1.936,1.961-4.055,3.26-7.423,3.26C125.811,47.529,121.86,43.314,121.86,37.987z"/>
	<path fill="#833031" d="M149.107,28.523h1.962l8.453,18.687h-2.252l-2.175-4.902h-10.099l-2.199,4.902h-2.146L149.107,28.523z
		 M154.276,40.426l-4.215-9.462l-4.241,9.462H154.276z"/>
	<path fill="#833031" d="M159.788,33.746c1.325-0.478,1.882-1.167,1.776-2.306h-0.953v-2.784h2.438v2.387
		c0,2.147-0.928,3.181-2.942,3.631L159.788,33.746z"/>
	<path fill="#833031" d="M166.335,44.508l1.297-1.537c1.935,1.747,3.791,2.622,6.363,2.622c2.49,0,4.134-1.324,4.134-3.154v-0.053
		c0-1.722-0.928-2.703-4.822-3.525c-4.269-0.927-6.229-2.305-6.229-5.354v-0.053c0-2.916,2.568-5.064,6.096-5.064
		c2.703,0,4.64,0.77,6.522,2.279l-1.22,1.617c-1.724-1.405-3.446-2.014-5.356-2.014c-2.412,0-3.949,1.325-3.949,2.995v0.053
		c0,1.749,0.955,2.729,5.035,3.604c4.137,0.902,6.045,2.412,6.045,5.248v0.052c0,3.182-2.651,5.249-6.337,5.249
		C170.973,47.477,168.563,46.495,166.335,44.508z"/>
	<path fill="#3A96A1" d="M56.138,51.342h2.895l8.194,19.818l8.225-19.818h2.797l-9.905,23.177h-2.303L56.138,51.342z"/>
	<path fill="#3A96A1" d="M80.423,62.903v-0.066c0-6.352,4.774-11.888,11.781-11.888c7.008,0,11.715,5.473,11.715,11.822v0.065
		c0,6.352-4.771,11.91-11.781,11.91C85.13,74.747,80.423,69.253,80.423,62.903z M101.22,62.903v-0.066c0-5.231-3.815-9.5-9.082-9.5
		c-5.263,0-9.014,4.203-9.014,9.435v0.065c0,5.23,3.816,9.509,9.08,9.509C97.469,72.346,101.22,68.136,101.22,62.903z"/>
	<path fill="#3A96A1" d="M109.644,51.342h2.601v23.012h-2.601V51.342z"/>
	<path fill="#3A96A1" d="M117.968,62.903v-0.066c0-6.514,4.87-11.888,11.646-11.888c4.181,0,6.683,1.474,8.984,3.631l-1.777,1.904
		c-1.94-1.836-4.111-3.147-7.239-3.147c-5.099,0-8.917,4.135-8.917,9.433v0.066c0,5.33,3.851,9.509,8.917,9.509
		c3.158,0,5.233-1.216,7.437-3.322l1.711,1.678c-2.401,2.438-5.032,4.046-9.213,4.046C122.871,74.747,117.968,69.516,117.968,62.903
		z"/>
	<path fill="#3A96A1" d="M143.27,51.342h16.65v2.357h-14.049v7.854h12.568v2.37h-12.568v8.059h14.215v2.371h-16.814V51.342H143.27z"
		/>
	<path fill="#3A96A1" d="M163.804,70.996l1.609-1.905c2.404,2.17,4.708,3.255,7.899,3.255c3.094,0,5.134-1.644,5.134-3.916v-0.065
		c0-2.139-1.151-3.356-5.99-4.376c-5.297-1.151-7.732-2.864-7.732-6.646v-0.068c0-3.61,3.191-6.261,7.568-6.261
		c3.354,0,5.758,0.949,8.093,2.814l-1.513,2c-2.138-1.738-4.275-2.491-6.645-2.491c-2.996,0-4.903,1.636-4.903,3.707v0.066
		c0,2.171,1.185,3.389,6.252,4.475c5.132,1.119,7.501,2.995,7.501,6.518v0.063c0,3.949-3.289,6.517-7.862,6.517
		C169.56,74.683,166.567,73.465,163.804,70.996z"/>
</g>
</svg>
